<?xml version="1.0" encoding="iso-8859-1"?>
<!DOCTYPE svg PUBLIC "-//W3C//DTD SVG 1.1//EN" "http://www.w3.org/Graphics/SVG/1.1/DTD/svg11.dtd">
<svg xmlns="http://www.w3.org/2000/svg" xmlns:xlink="http://www.w3.org/1999/xlink" version="1.1" viewBox="0 0 240.162 240.162" enable-background="new 0 0 240.162 240.162" width="512px" height="512px">
  <g>
    <path d="m39.818,72.494h97.652c3.866,0 7-3.134 7-7s-3.134-7-7-7h-97.652c-3.866,0-7,3.134-7,7s3.134,7 7,7z" fill="#b6c9d9"/>
    <path d="m39.818,96.543h97.652c3.866,0 7-3.134 7-7s-3.134-7-7-7h-97.652c-3.866,0-7,3.134-7,7s3.134,7 7,7z" fill="#b6c9d9"/>
    <path d="m91.477,178.738h-51.659c-3.866,0-7,3.134-7,7s3.134,7 7,7h51.658c3.866,0 7-3.134 7-7s-3.133-7-6.999-7z" fill="#b6c9d9"/>
    <path d="m236.763,20.911l-20.58-12.348c-1.592-0.955-3.498-1.24-5.299-0.789-1.801,0.45-3.35,1.598-4.305,3.189l-35.829,59.714v-42.32c0-3.866-3.134-7-7-7h-156.75c-3.866,0-7,3.134-7,7v197.24c0,3.866 3.134,7 7,7h156.75c3.866,0 7-3.134 7-7v-81.062l68.414-114.02c1.989-3.315 0.914-7.614-2.401-9.604zm-90.402,137.061l-11.617,9.643 3.042-14.788 67.152-111.917 8.575,5.145-67.152,111.917zm74.355-123.922l-8.575-5.145 2.842-4.736 8.575,5.145-2.842,4.736zm-206.716,184.547v-183.24h142.75v58.653l-12.363,20.604c0.049-0.335 0.083-0.674 0.083-1.022 0-3.866-3.134-7-7-7h-97.652c-3.866,0-7,3.134-7,7s3.134,7 7,7h97.652c1.559,0 2.993-0.516 4.156-1.377l-6.856,11.426h-94.952c-3.866,0-7,3.134-7,7s3.134,7 7,7h86.552l-1.204,2.006c-0.406,0.677-0.695,1.418-0.854,2.191l-1.203,5.851h-83.291c-3.866,0-7,3.134-7,7s3.134,7 7,7h80.411l-3.217,15.639c-0.599,2.911 0.706,5.883 3.255,7.413 1.114,0.668 2.36,0.998 3.601,0.998 1.597,0 3.185-0.545 4.472-1.614l27.88-23.142c0.191-0.159 0.357-0.344 0.53-0.521v51.135h-142.75z" fill="#b6c9d9"/>
  </g>
</svg>
