<?xml version="1.0" encoding="iso-8859-1"?>
<!DOCTYPE svg PUBLIC "-//W3C//DTD SVG 1.1//EN" "http://www.w3.org/Graphics/SVG/1.1/DTD/svg11.dtd">
<svg xmlns="http://www.w3.org/2000/svg" xmlns:xlink="http://www.w3.org/1999/xlink" version="1.1" viewBox="0 0 250.93 250.93" enable-background="new 0 0 250.93 250.93" width="512px" height="512px">
  <g>
    <path d="m247.896,25.718l-25.083-17.244c-1.167-0.802-2.55-1.232-3.966-1.232h-91.706c-3.866,0-7,3.134-7,7v47.462h-88.06c-1.416,0-2.799,0.43-3.966,1.231l-25.081,17.244c-1.899,1.306-3.034,3.464-3.034,5.769s1.135,4.462 3.034,5.768l25.082,17.244c1.167,0.802 2.55,1.232 3.966,1.232h88.06v119.496h-29.224c-3.866,0-7,3.134-7,7s3.134,7 7,7h69.74c3.866,0 7-3.134 7-7s-3.134-7-7-7h-26.517v-173.959h84.706c1.416,1.42109e-14 2.799-0.43 3.966-1.232l25.082-17.243c1.899-1.306 3.034-3.463 3.034-5.769s-1.134-4.462-3.033-5.767zm-213.64,70.474l-14.9-10.244 14.9-10.244h85.885v20.488h-85.885zm182.417-54.463h-82.532v-20.487h82.532l14.9,10.244-14.9,10.243z" fill="#b6c9d9"/>
  </g>
</svg>
