<?xml version="1.0" encoding="iso-8859-1"?>
<!DOCTYPE svg PUBLIC "-//W3C//DTD SVG 1.1//EN" "http://www.w3.org/Graphics/SVG/1.1/DTD/svg11.dtd">
<svg xmlns="http://www.w3.org/2000/svg" xmlns:xlink="http://www.w3.org/1999/xlink" version="1.1" viewBox="0 0 222.479 222.479" enable-background="new 0 0 222.479 222.479" width="512px" height="512px">
  <g>
    <path d="m215.479,123.301h-3.529v-36.217c0-2.197-1.031-4.266-2.785-5.589l-93.71-70.666c-2.496-1.882-5.934-1.882-8.43,0l-29.786,22.461v-16.199c0-3.866-3.134-7-7-7h-36c-3.866,0-7,3.134-7,7v53.903l-13.925,10.501c-1.754,1.323-2.785,3.392-2.785,5.589v36.217h-3.529c-3.866,0-7,3.134-7,7s3.134,7 7,7h3.529v68.76c0,3.866 3.134,7 7,7h187.42c3.866,0 7-3.134 7-7v-68.76h3.529c3.866,0 7-3.134 7-7s-3.133-7-6.999-7zm-45.24,75.759h-7.5v-18.969h7.5v18.969zm14,0v-25.969c0-3.866-3.134-7-7-7h-21.5c-3.866,0-7,3.134-7,7v25.969h-124.21v-61.76h173.42v61.76h-13.71zm-159.71-75.759v-32.728l86.71-65.387 86.71,65.387v32.728h-173.42zm16.71-99.21h22v19.756l-22,16.59v-36.346z" fill="#adc867"/>
    <path d="m75.239,166.091h-17c-3.866,0-7,3.134-7,7s3.134,7 7,7h17c3.866,0 7-3.134 7-7s-3.134-7-7-7z" fill="#adc867"/>
    <path d="m75.239,91.091h-17c-3.866,0-7,3.134-7,7s3.134,7 7,7h17c3.866,0 7-3.134 7-7s-3.134-7-7-7z" fill="#adc867"/>
    <path d="m119.739,91.091h-17c-3.866,0-7,3.134-7,7s3.134,7 7,7h17c3.866,0 7-3.134 7-7s-3.134-7-7-7z" fill="#adc867"/>
    <path d="m164.239,91.091h-17c-3.866,0-7,3.134-7,7s3.134,7 7,7h17c3.866,0 7-3.134 7-7s-3.134-7-7-7z" fill="#adc867"/>
  </g>
</svg>
