<?xml version="1.0" encoding="iso-8859-1"?>
<!DOCTYPE svg PUBLIC "-//W3C//DTD SVG 1.1//EN" "http://www.w3.org/Graphics/SVG/1.1/DTD/svg11.dtd">
<svg xmlns="http://www.w3.org/2000/svg" xmlns:xlink="http://www.w3.org/1999/xlink" version="1.1" viewBox="0 0 268.188 268.188" enable-background="new 0 0 268.188 268.188" width="512px" height="512px">
  <g>
    <path d="m34.27,83.255l89.495-67.487 89.495,67.487c1.263,0.952 2.742,1.412 4.21,1.412 2.121,0 4.218-0.961 5.594-2.786 2.328-3.087 1.713-7.476-1.374-9.804l-93.71-70.666c-2.496-1.882-5.934-1.882-8.43-1.33227e-15l-93.71,70.666c-3.087,2.328-3.702,6.717-1.374,9.804 2.328,3.086 6.717,3.7 9.804,1.374z" fill="#b6c9d9"/>
    <path d="m243.083,242.45l-18.607-18.607v-116.368c0-2.197-1.031-4.266-2.785-5.589l-93.711-70.666c-2.496-1.882-5.934-1.882-8.43,0l-93.71,70.666c-1.754,1.323-2.785,3.392-2.785,5.589v118.977c0,3.866 3.134,7 7,7h156.653l32.686,32.686c1.367,1.367 3.159,2.05 4.95,2.05s3.583-0.684 4.95-2.05l13.788-13.788c2.734-2.734 2.734-7.167 0.001-9.9zm-206.028-131.486l86.71-65.387 86.71,65.387v98.879l-29.647-29.648c11.482-21.637 8.128-49.144-10.072-67.345-10.813-10.813-25.188-16.767-40.48-16.767-15.291,0-29.667,5.955-40.48,16.767-22.32,22.321-22.32,58.64 0.001,80.96 10.813,10.813 25.188,16.767 40.479,16.767 9.531,0 18.706-2.315 26.884-6.676l15.549,15.549h-135.654v-108.486zm93.22,85.614c-11.552,0-22.412-4.499-30.58-12.667-16.862-16.862-16.862-44.299-0.001-61.162 8.169-8.168 19.029-12.667 30.581-12.667 11.553,0 22.412,4.499 30.58,12.667 16.862,16.862 16.862,44.299 0,61.162-8.168,8.169-19.027,12.667-30.58,12.667zm38.489-.87c0.676-0.615 1.341-1.246 1.992-1.897 0.652-0.652 1.281-1.318 1.895-1.994l55.583,55.583-3.889,3.889-55.581-55.581z" fill="#b6c9d9"/>
    <path d="m157.065,170.22c-2.734-2.733-7.166-2.733-9.9,0-9.312,9.312-24.465,9.313-33.778,0-2.734-2.733-7.166-2.733-9.9,0-2.733,2.733-2.733,7.166 0,9.899 7.387,7.386 17.088,11.079 26.789,11.079 9.702,0 19.403-3.693 26.79-11.079 2.733-2.733 2.733-7.166-0.001-9.899z" fill="#b6c9d9"/>
  </g>
</svg>
