<?xml version="1.0" encoding="iso-8859-1"?>
<!DOCTYPE svg PUBLIC "-//W3C//DTD SVG 1.1//EN" "http://www.w3.org/Graphics/SVG/1.1/DTD/svg11.dtd">
<svg xmlns="http://www.w3.org/2000/svg" xmlns:xlink="http://www.w3.org/1999/xlink" version="1.1" viewBox="0 0 231.543 231.543" enable-background="new 0 0 231.543 231.543" width="512px" height="512px">
  <g>
    <path d="m209.052,44.633h-47.302c-0.254-9.474-3.452-18.695-9.391-26.499-8.769-11.524-22.105-18.134-36.587-18.134s-27.819,6.61-36.589,18.134c-5.938,7.804-9.136,17.025-9.391,26.499h-47.301c-3.866,0-7,3.134-7,7v172.911c0,3.866 3.134,7 7,7h186.562c3.866,0 7-3.134 7-7v-172.911c-0.001-3.866-3.134-7-7.001-7zm-93.28-30.633c10.073,0 19.348,4.597 25.447,12.612 6.011,7.898 8,17.883 5.488,27.462l-30.936,72.781-30.935-72.78c-2.512-9.579-0.522-19.564 5.488-27.462 6.1-8.016 15.375-12.613 25.448-12.613zm-6.443,133.488c1.099,2.584 3.635,4.262 6.442,4.262s5.344-1.678 6.442-4.262l28.203-66.352h27.355v113.902h-124v-113.901h27.355l28.203,66.351zm92.723,70.055h-172.561v-158.91h42.107c0.054,0.158 0.099,0.318 0.164,0.472l3.414,8.032h-28.404c-3.866,0-7,3.134-7,7v127.902c0,3.866 3.134,7 7,7h138c3.866,0 7-3.134 7-7v-127.902c0-3.866-3.134-7-7-7h-28.404l3.414-8.032c0.065-0.153 0.11-0.314 0.164-0.472h42.107v158.91z" fill="#b6c9d9"/>
  </g>
</svg>
